<svg width="676" height="866" viewBox="0 0 676 866" fill="none" xmlns="http://www.w3.org/2000/svg">
<g clip-path="url(#clip0_2366_2421)">
<path d="M312 288.877C334.544 317.946 380 344.877 432.5 358.377C437.5 365.21 459.8 371.477 509 341.877C570.5 304.877 587.5 235.377 583.5 205.377C581.755 192.292 641 170.877 631.5 155.877C622 140.877 575.5 172.377 570 161.377C564.5 150.377 624.5 112.377 608 95.8767C591.5 79.3767 548 142.377 542.5 131.377C537 120.377 572.5 46.8767 556.5 41.3767C540.5 35.8767 518.5 92.3767 505 95.3767C491.5 98.3767 469.5 85.3767 442 87.3767C406.594 89.9517 379.5 104.377 367 104.377C354.5 104.377 320.5 50.8767 308 67.3767C295.5 83.8767 341 125.377 331.5 136.377C322 147.377 273 83.8767 262 100.377C251 116.877 309.5 171.877 301 180.377C292.5 188.877 242.5 134.377 232 151.877C224.832 163.823 282 216.877 286 227.877C290.54 240.362 293 264.377 312 288.877Z" fill="#0B0E23"/>
<path d="M21 744.377C219.5 680.377 213.5 419.377 388.5 333.877C450.5 304.71 560.8 262.177 506 325.377C437.5 404.377 491 774.377 337.5 831.877C269 838.377 119.5 737.877 21 744.377Z" fill="#0B0E23"/>
<path d="M329 867.5C290.5 870 305 791.877 349.5 641.877C371 580.877 411.4 501.977 401 674.377C388 889.877 367.5 865 329 867.5Z" fill="#0B0E23"/>
<path d="M535.5 866.877C495.5 868.377 489 864.377 479.5 636.877C465 581.543 451.2 501.077 512 621.877C588 772.877 575.5 865.377 535.5 866.877Z" fill="#0B0E23"/>
<path d="M552.5 347.877C525.5 321.877 524 333.377 479.5 333.377C476.333 348.21 490.48 360.477 512 387.377C526 404.877 557.5 431.377 580 458.877C560.5 495.877 538 533.877 527.5 544.377C517 554.877 511 565.377 516 584.377C521 603.377 540.5 606.377 559 596.877C577.5 587.377 640.681 480.361 640 465.377C639 443.377 579.5 373.877 552.5 347.877Z" fill="#0B0E23"/>
<path d="M612 248.377C608.198 237.868 606.732 232.488 551.413 233.002C546.885 255.861 539.581 294.619 558.753 289.953C582.718 284.12 615.337 257.598 612 248.377Z" fill="#0B0E23"/>
<path d="M428 690.877C511 706.377 548.5 641.877 544.999 523.377C543.061 457.774 530.5 406.377 549 382.877C536.832 363.384 488.886 349.32 461.999 335.877L369.499 527.877C368.666 592.043 365.679 679.238 428 690.877Z" fill="#0B0E23"/>
</g>
<defs>
<clipPath id="clip0_2366_2421">
<rect width="676" height="866" fill="white"/>
</clipPath>
</defs>
</svg>
